#!OML:ASF E:\id_vita\Project 1\Capture day 1\Session 1\Male1.ASF
:FULLY-SPECIFIED
:DEGREES
767
root 20.3098 16.5434 16.6295 -161.122 -75.1805 160.644
lowerback 5.66822 1.75688 0.578647
upperback 3.4787 2.2698 1.43033
thorax 0.366562 1.08865 1.02434
lowerneck -9.25869 11.6775 10.5002
upperneck 15.1101 13.6388 2.21287
head 6.72569 7.28547 0.287237
rclavicle -1.74931e-014 -2.38542e-014
rhumerus -210.119 -154.735 -255.405
rradius 36.3727
rwrist -367.517
rhand -21.1685 41.2559
rfingers 7.12502
rthumb 5.21168 -348.66
lclavicle -1.74931e-014 -2.38542e-014
lhumerus -153.401 34.1408 -82.5227
lradius 9.81747
lwrist -137.475
lhand -4.77435 47.2345
lfingers 7.12502
lthumb 21.0102 436.116
rfemur -8.16268 -2.6153 19.5787
rtibia 23.3294
rfoot -14.246 -9.02366
rtoes -8.99593
lfemur -13.5674 -2.93686 -9.75513
ltibia 24.4161
lfoot -12.8658 3.60602
ltoes 28.9242
768
root 20.2496 16.5506 16.6381 -160.77 -75.1417 160.276
lowerback 5.44648 1.73981 0.822086
upperback 3.56207 2.25273 1.29001
thorax 0.590915 1.08517 0.754037
lowerneck -8.70049 11.795 10.9355
upperneck 14.7036 13.8691 1.85558
head 6.56719 7.38458 0.0940492
rclavicle 9.93923e-015 1.59028e-015
rhumerus -210.163 -153.763 -255.194
rradius 37.0542
rwrist -368.047
rhand -21.3084 41.4259
rfingers 7.12502
rthumb 5.07656 -348.493
lclavicle 9.93923e-015 1.59028e-015
lhumerus -151.525 36.6254 -80.5586
lradius 9.3733
lwrist -133.531
lhand -4.19933 46.9276
lfingers 7.12502
lthumb 21.5625 435.747
rfemur -7.77628 -2.54532 19.4003
rtibia 22.9641
rfoot -13.9422 -9.28457
rtoes -10.694
lfemur -13.9737 -4.97341 -9.51687
ltibia 23.4503
lfoot -12.7065 4.22545
ltoes 28.7345
769
root 20.1937 16.5656 16.6453 -160.02 -75.005 159.636
lowerback 5.65176 1.79076 0.398225
upperback 3.28172 2.31671 1.52775
thorax 0.161095 1.11213 1.21912
lowerneck -8.87755 11.765 10.3635
upperneck 15.6247 13.7892 2.32571
head 6.81662 7.36928 0.351778
rclavicle 1.13307e-014 4.77083e-015
rhumerus -210.67 -153.391 -254.27
rradius 37.8011
rwrist -368.883
rhand -21.7667 41.4081
rfingers 7.12502
rthumb 4.63402 -348.521
lclavicle 1.13307e-014 4.77083e-015
lhumerus -148.696 38.4858 -77.1515
lradius 8.95739
lwrist -129.326
lhand -4.06983 46.3793
lfingers 7.12502
lthumb 21.6869 435.185
rfemur -7.4835 -2.39253 19.0939
rtibia 22.5308
rfoot -13.8399 -9.26992
rtoes -10.4926
lfemur -14.6028 -6.46847 -9.43133
ltibia 22.7975
lfoot -12.1872 4.68011
ltoes 28.25
770
root 20.1402 16.5784 16.6528 -160.173 -74.7837 159.904
lowerback 5.28995 1.89849 0.723939
upperback 3.49091 2.46225 1.36157
thorax 0.595783 1.18929 0.875949
lowerneck -9.35806 11.8408 10.4917
upperneck 16.1551 13.7216 2.68238
head 7.0558 7.37792 0.489118
rclavicle 2.04748e-014 -4.77083e-015
rhumerus -210.53 -151.976 -254.148
rradius 38.4806
rwrist -369.437
rhand -22.0299 41.7702
rfingers 7.12502
rthumb 4.37994 -348.165
lclavicle 2.04748e-014 -4.77083e-015
lhumerus -147.693 41.3714 -75.7107
lradius 9.08871
lwrist -124.986
lhand -3.8163 45.4549
lfingers 7.12502
lthumb 21.9304 434.232
rfemur -7.21906 -2.31216 18.9825
rtibia 22.1084
rfoot -13.897 -9.04617
rtoes -10.207
lfemur -15.2165 -7.63362 -9.17036
ltibia 22.3727
lfoot -11.4807 5.07015
ltoes 28.6211
771
root 20.0899 16.5843 16.6583 -161.366 -74.6604 161.107
lowerback 5.43013 1.98409 1.13477
upperback 3.45202 2.59534 1.37854
thorax 0.494596 1.26129 0.651838
lowerneck -9.08228 12.0198 10.8583
upperneck 15.9787 13.9752 2.50347
head 7.00232 7.50213 0.388831
rclavicle -1.51076e-014 1.27222e-014
rhumerus -210.958 -150.724 -253.628
rradius 39.3096
rwrist -370.152
rhand -21.8661 41.8885
rfingers 7.12502
rthumb 4.5381 -348.043
lclavicle -1.51076e-014 1.27222e-014
lhumerus -145.789 43.8968 -73.4465
lradius 8.96957
lwrist -120.36
lhand -3.60743 45.404
lfingers 7.12502
lthumb 22.1309 434.157
rfemur -6.8228 -2.03191 19.2
rtibia 21.7019
rfoot -13.86 -9.009
rtoes -9.61311
lfemur -15.7533 -8.45618 -8.66221
ltibia 22.1358
lfoot -10.6493 5.28448
ltoes 29.7217
772
root 20.0438 16.5869 16.6637 -161.25 -74.6513 160.983
lowerback 5.86454 2.03409 0.839791
upperback 3.19208 2.6659 1.63042
thorax -0.0399153 1.29088 1.04867
lowerneck -8.91834 12.1924 11.1772
upperneck 16.1566 14.2668 2.03284
head 7.10404 7.62917 0.231152
rclavicle -2.54444e-014 -1.59028e-015
rhumerus -211.635 -149.797 -252.494
rradius 40.1057
rwrist -371.016
rhand -21.9548 41.4246
rfingers 7.12502
rthumb 4.45238 -348.509
lclavicle -2.54444e-014 -1.59028e-015
lhumerus -142.707 45.7102 -69.6209
lradius 8.59715
lwrist -115.377
lhand -3.86512 45.1811
lfingers 7.12502
lthumb 21.8835 433.964
rfemur -6.41432 -1.76113 19.1107
rtibia 21.2327
rfoot -13.7349 -9.17215
rtoes -10.392
lfemur -16.4442 -8.75188 -8.60141
ltibia 22.1415
lfoot -9.98541 5.12501
ltoes 29.5794
773
root 19.9961 16.5886 16.6712 -161.08 -74.8384 160.717
lowerback 5.83565 2.04182 0.940379
upperback 3.38572 2.66969 1.65454
thorax 0.17897 1.29101 1.0227
lowerneck -8.96716 12.3698 10.8226
upperneck 16.1695 14.482 2.45014
head 7.06554 7.7454 0.433629
rclavicle 2.16675e-014 0
rhumerus -211.263 -147.676 -251.919
rradius 40.2753
rwrist -371.116
rhand -22.801 41.0989
rfingers 7.12502
rthumb 3.63524 -348.85
lclavicle 2.16675e-014 0
lhumerus -140.072 47.8364 -66.2106
lradius 8.22577
lwrist -110.272
lhand -4.09827 44.96
lfingers 7.12502
lthumb 21.6596 433.768
rfemur -5.87212 -1.5947 19.0403
rtibia 20.7775
rfoot -13.6183 -9.41819
rtoes -9.18934
lfemur -17.0942 -8.57668 -8.68522
ltibia 22.2836
lfoot -9.4066 4.56618
ltoes 28.9131
774
root 19.9448 16.5918 16.6797 -162.25 -74.9855 161.751
lowerback 5.54439 2.09457 1.57428
upperback 3.83172 2.73647 1.59936
thorax 0.832879 1.33051 0.631331
lowerneck -9.10954 12.3505 11.1007
upperneck 15.8743 14.4489 2.18113
head 7.03389 7.71762 0.308725
rclavicle -6.12257e-014 -1.27222e-014
rhumerus -211.072 -146.878 -252.177
rradius 41.5979
rwrist -372.588
rhand -24.2362 40.23
rfingers 7.12502
rthumb 2.24921 -349.738
lclavicle -6.12257e-014 -1.27222e-014
lhumerus -138.111 50.4783 -63.5591
lradius 8.04383
lwrist -105.227
lhand -3.75733 45.539
lfingers 7.12502
lthumb 21.987 434.309
rfemur -5.34913 -1.51297 19.3038
rtibia 20.4271
rfoot -13.389 -9.66806
rtoes -10.9971
lfemur -17.5414 -8.25644 -8.52678
ltibia 22.4409
lfoot -8.63469 4.1672
ltoes 28.7551
775
root 19.8977 16.5993 16.6895 -162.165 -75.0588 161.712
lowerback 5.91893 2.18731 1.70696
upperback 3.57653 2.88833 1.58882
thorax 0.369519 1.40869 0.51759
lowerneck -9.01782 12.2265 11.2421
upperneck 16.2396 14.2569 2.17088
head 7.14361 7.63882 0.274108
rclavicle 3.3197e-014 2.06736e-014
rhumerus -211.654 -145.46 -251.284
rradius 41.9292
rwrist -373.609
rhand -25.1891 40.1286
rfingers 7.12502
rthumb 1.32892 -349.847
lclavicle 3.3197e-014 2.06736e-014
lhumerus -134.727 52.7919 -59.636
lradius 7.88486
lwrist -100.192
lhand -3.51644 45.6228
lfingers 7.12502
lthumb 22.2182 434.366
rfemur -5.13954 -1.74164 19.2299
rtibia 20.0614
rfoot -13.0905 -9.73495
rtoes -11.9848
lfemur -18.2643 -7.93255 -8.69661
ltibia 22.7126
lfoot -7.87352 3.86361
ltoes 29.3062
